<?xml version="1.0" encoding="UTF-8"?>
<svg viewBox="0 0 640 480" xmlns="http://www.w3.org/2000/svg">
 <defs>
  <linearGradient id="a" y2="1">
   <stop stop-color="#7a877d" offset="0"/>
   <stop stop-color="#222f45" offset="1"/>
  </linearGradient>
 </defs>
 <g fill-rule="evenodd">
  <path d="m363.14 116.62c-10.439-8.093-27.917-15.776-42.52-28.151 6.453-12.907 2.053-27.858 32.256-24.632 16.465 1.2167 12.023 14.791 13.196 22.285 1.173 9.356 8.487 21.114-2.932 30.498z" fill="#bf5f00" stroke="#000" stroke-width="2"/>
  <path d="m24.17 415.07c24.672 16.934 69.116 21.194 81.425 22.33 83.556 4.5691 235.06 13.514 307.86-17.027-1.6989-44.02-41.132-100.91-56.235-77.711-17.51-13.738-5.5724-10.324-10.041-10.324-40.304-26.184-230.42-19.576-272.06 2.2864-19.029-17.072-30.235 26.78-50.955 80.446h1e-5z" fill="#5fbf00" stroke-width="0"/>
  <path d="m80.48 369.94c5.8545 11.812-25.806 40.853-14.82 46.004 125.74-12.315 163.95-20.397 233.13 2.7322 7.9695-5.6052 77.089-47.432 60.712-51.468-25.324-3.6442-178.21-4.6553-279.02 2.7321h1.5e-5z" fill-opacity=".227"/>
  <g stroke="#000">
   <path d="m163.79 296.24c1.6738 8.5099 1.1069 55.592-0.44775 70.148-8.9042 3.0017-38.414 3.0513-50.886 0.73148-0.049896-9.7666-0.17284-64.348 0.53931-70.88 6.8661 0.88715 47.096-0.63236 50.794 5.8e-4z" fill="#b80000" stroke-linejoin="round" stroke-width=".521"/>
   <path d="m78.84 349.59c0-17.786 2.5369-47.078 2.5369-58.336 0-6.1398-8.5006-107.74-8.5006-113.88 0-2.22 141.96-108.95 147.58-108.95 71.274 45.85 163.02 103.02 170.21 112.85 1.8416 3.5647-31.382 153.49-31.382 164.63 0 3.8889-0.13559 12.281-0.63431 20.264-12.69-0.61468-190.06 0.68878-195.44-0.61377-2.2454-13.963 3.3064-57.188 1.5957-60.317-2.9984-4.8844-41.892-5.2817-49.958-2.0368-4.0296 1.6211 5.0746 64.196-0.84743 64.196h-33.889c-1.6161-0.78241-1.2685-12.714-1.2685-17.808z" fill="#d69b64" stroke-width="1.421"/>
   <g stroke-linejoin="round">
    <path d="m280.86 297.18c0 2.9115 0.97848 39.54 0.66818 45.425 4.3414 1.0215 17.895 2.6104 21.038 4.0071-0.4989-13.36 1.085-44.979-0.3338-52.995-3.652 0.90448-18.792 3.1174-21.372 3.5632z" fill="#b40000"/>
    <path d="m235.31 297.13c-0.6105 0-0.3338 1.5405-0.3338 2.1585 0 10.794 0.52899 35.403 0.3338 42.742-3.6402 0-16.774 3.7866-20.036 4.3176-0.34598-5.8363-1.6318-47.59-0.33429-52.672 5.0091 2.2514 15.512 4.317 17.365 4.317 0.89081 0 1.7811 0 3.0057-0.86319z" fill="#b50000"/>
   </g>
  </g>
  <path d="m198.58 123.74v49.656h50.638v-49.656h-50.638z" fill="url(#a)" stroke="#fff" stroke-width="2.61"/>
  <g stroke="#000" stroke-linejoin="round">
   <path d="m252.76 120.61c0 3.4248 1.92 46.51 1.311 53.433 8.519 1.2016 35.114 3.0706 41.282 4.7135-0.97897-15.715 2.129-52.908-0.655-62.338-7.166 1.064-36.875 3.667-41.938 4.1914z" fill="#b40000"/>
   <path d="m195.25 121.14c-1.198 0-0.655 1.812-0.655 2.539 0 12.696 1.038 41.644 0.655 50.277-7.143 0-32.914 4.4541-39.316 5.0788-0.679-6.8652-3.202-55.979-0.65599-61.958 9.829 2.6483 30.438 5.078 34.074 5.078 1.748 0 3.495 0 5.898-1.0153z" fill="#b50000"/>
  </g>
  <path d="m127.58 214.7v48.637h38.96v-48.637h-38.96z" fill="url(#a)" stroke="#fff" stroke-width="2.266"/>
  <g stroke="#000" stroke-linejoin="round">
   <path d="m170.64 211.34c0 3.3606 1.3624 45.639 0.93019 52.431 6.0447 1.1791 24.915 3.0131 29.292 4.6252-0.6947-15.421 1.5106-51.917-0.4648-61.169-5.0846 1.0441-26.165 3.5983-29.757 4.1129z" fill="#b40000"/>
   <path d="m124.65 212.08c-0.8501 0-0.4648 1.778-0.4648 2.4914 0 12.458 0.7365 40.864 0.4648 49.335-5.0684 0-23.354 4.3706-27.897 4.9836-0.48179-6.7366-2.272-54.93-0.46547-60.797 6.9742 2.5986 21.597 4.9828 24.177 4.9828 1.2403 0 2.4799 0 4.185-0.9962z" fill="#b50000"/>
  </g>
  <g stroke="#fff">
   <g fill="none">
    <path d="m223.56 122.4v50.438" stroke-width="5"/>
    <path d="m248.49 148.07h-50.152" stroke-width="4.986"/>
    <path d="m146.42 213.41v50.438" stroke-width="5"/>
    <path d="m165.62 238.21h-38.317" stroke-width="4.358"/>
   </g>
   <path d="m239.52 295.93v48.637h38.96v-48.637h-38.96z" fill="url(#a)" stroke-width="2.266"/>
   <g fill="none">
    <path d="m277 320.25h-38.317" stroke-width="4.358"/>
    <path d="m259 295.25v50.438" stroke-width="5"/>
   </g>
   <path d="m276.7 214.41v48.637h38.96v-48.637h-38.96z" fill="url(#a)" stroke-width="2.266"/>
  </g>
  <g stroke="#000" stroke-linejoin="round">
   <path d="m319.25 211.05c0 3.3606 1.3624 45.639 0.93018 52.431 6.0447 1.1791 24.915 3.0131 29.292 4.6252-0.69473-15.421 1.5106-51.917-0.46481-61.169-5.0846 1.0441-26.165 3.5983-29.757 4.1129z" fill="#b40000"/>
   <path d="m272.77 211.78c-0.8501 0-0.46478 1.778-0.46478 2.4914 0 12.458 0.73651 40.864 0.46478 49.335-5.0684 0-23.354 4.3706-27.897 4.9836-0.4818-6.7366-2.272-54.93-0.46548-60.797 6.9742 2.5986 21.597 4.9828 24.177 4.9828 1.2403 0 2.4799 0 4.185-0.9962z" fill="#b50000"/>
  </g>
  <g fill="none" stroke="#fff">
   <path d="m295.54 213.11v50.438" stroke-width="5"/>
   <path d="m314.74 237.91h-38.317" stroke-width="4.358"/>
  </g>
  <path d="m46.658 195.32c-58.037-18.117 130.77-138.82 142.64-157.47 9.3454-17.038 12.44 7.3432 30.438 6.9866 15.158-1.1647 37.779-31.084 42.274-2.875 3.2827 21.757 219.38 127.18 156.36 154.13-34.36-21.705-164.27-101.21-193.73-124.33-28.391 17.888-154.74 108.06-177.99 123.57z" fill="#7f0000" stroke="#000" stroke-linejoin="round" stroke-width="2"/>
 </g>
 <circle cx="152" cy="331" r="5.3151" fill="#bf5f00" stroke="#000" stroke-dasharray="null" stroke-linecap="null" stroke-linejoin="null"/>
</svg>
